# xmcd
#
# Track frame offsets:
#	150
#	12750
#	26072
#	36875
#	48875
#	59925
#	84430
#	93212
#	105162
#	119075
#
# Disc length: 1742
#
# Revision: 2
# Processed by: cddbd v1.5.1PL0 Copyright (c) Steve Scherf et al.
# Submitted via: ExactAudioCopy v0.95a5
# Normalized: r1:TDELIM( - ),TSWAP
#
DISCID=7906cc0a
DTITLE=Various Artist - Shades Of Blues - Vol. III
DYEAR=2000
DGENRE=Blues
TTITLE0=John Lee Hooker - Hobo Blues
TTITLE1=Dinah Washington - Chewin' Mama Blues
TTITLE2=Billy Holiday - Nobody's Business
TTITLE3=Lightnin' Hopkins - Have You Ever Loved A Woman
TTITLE4=B.B. King - Catfish Blues
TTITLE5=Lightnin' Hopkins - Walk A Long Time
TTITLE6=Billie Holiday - Please Don't Talk About Me When I'm Gone
TTITLE7=John Lee Hooker - Crawlin' King Snake
TTITLE8=Eddie "Clean Head" Vinson - Sugar
TTITLE9=Elmore James - Rollin' And Tumblin'
EXTD=YEAR: 1998 ID3G: 0
EXTT0=
EXTT1=
EXTT2=
EXTT3=
EXTT4=
EXTT5=
EXTT6=
EXTT7=
EXTT8=
EXTT9=
PLAYORDER=
